<svg width="18" height="15" viewBox="0 0 18 15" fill="none" xmlns="http://www.w3.org/2000/svg">
<mask id="path-1-outside-1_135_277" maskUnits="userSpaceOnUse" x="0" y="0" width="18" height="15" fill="black">
<rect fill="white" width="18" height="15"/>
<path d="M15.8203 1.65234C14.3164 1.73438 11.3359 2.03516 9.50391 3.15625C9.36719 3.23828 9.28516 3.375 9.28516 3.51172V13.4648C9.28516 13.793 9.64062 13.9844 9.94141 13.8477C11.8281 12.8906 14.5625 12.6172 15.9023 12.5625C16.3672 12.5352 16.7227 12.1523 16.7227 11.7148V2.47266C16.75 2.00781 16.3125 1.625 15.8203 1.65234ZM8.21875 3.15625C6.38672 2.03516 3.40625 1.73438 1.90234 1.65234C1.41016 1.625 1 2.00781 1 2.47266V11.7148C1 12.1523 1.35547 12.5352 1.82031 12.5625C3.16016 12.6172 5.89453 12.8906 7.78125 13.8477C8.08203 13.9844 8.4375 13.793 8.4375 13.4648V3.51172C8.4375 3.375 8.35547 3.23828 8.21875 3.15625Z"/>
</mask>
<path d="M15.8203 1.65234C14.3164 1.73438 11.3359 2.03516 9.50391 3.15625C9.36719 3.23828 9.28516 3.375 9.28516 3.51172V13.4648C9.28516 13.793 9.64062 13.9844 9.94141 13.8477C11.8281 12.8906 14.5625 12.6172 15.9023 12.5625C16.3672 12.5352 16.7227 12.1523 16.7227 11.7148V2.47266C16.75 2.00781 16.3125 1.625 15.8203 1.65234ZM8.21875 3.15625C6.38672 2.03516 3.40625 1.73438 1.90234 1.65234C1.41016 1.625 1 2.00781 1 2.47266V11.7148C1 12.1523 1.35547 12.5352 1.82031 12.5625C3.16016 12.6172 5.89453 12.8906 7.78125 13.8477C8.08203 13.9844 8.4375 13.793 8.4375 13.4648V3.51172C8.4375 3.375 8.35547 3.23828 8.21875 3.15625Z" fill="white" fill-opacity="0.8"/>
<path d="M15.8203 1.65234L15.8748 2.65086L15.8758 2.6508L15.8203 1.65234ZM9.50391 3.15625L10.0184 4.01378L10.0259 4.00922L9.50391 3.15625ZM9.94141 13.8477L10.3552 14.758L10.3747 14.7492L10.3938 14.7395L9.94141 13.8477ZM15.9023 12.5625L15.9431 13.5617L15.9521 13.5613L15.9611 13.5608L15.9023 12.5625ZM16.7227 2.47266L15.7244 2.41393L15.7227 2.44327V2.47266H16.7227ZM8.21875 3.15625L7.69677 4.00925L7.70425 4.01374L8.21875 3.15625ZM1.90234 1.65234L1.84687 2.6508L1.84788 2.65086L1.90234 1.65234ZM1.82031 12.5625L1.76159 13.5608L1.77056 13.5613L1.77953 13.5617L1.82031 12.5625ZM7.78125 13.8477L7.32887 14.7395L7.34796 14.7492L7.36745 14.758L7.78125 13.8477ZM15.7658 0.653828C14.9878 0.69627 13.8175 0.795595 12.5946 1.03297C11.3879 1.26721 10.0481 1.65084 8.98194 2.30328L10.0259 4.00922C10.7917 3.54057 11.8582 3.21326 12.9757 2.99632C14.0771 2.78253 15.149 2.69045 15.8748 2.65086L15.7658 0.653828ZM8.98941 2.29876C8.5966 2.53444 8.28516 2.97414 8.28516 3.51172H10.2852C10.2852 3.77586 10.1378 3.94212 10.0184 4.01374L8.98941 2.29876ZM8.28516 3.51172V13.4648H10.2852V3.51172H8.28516ZM8.28516 13.4648C8.28516 14.6553 9.51974 15.1378 10.3552 14.758L9.5276 12.9373C9.67688 12.8694 9.84991 12.879 9.99409 12.9609C10.1489 13.0487 10.2852 13.2339 10.2852 13.4648H8.28516ZM10.3938 14.7395C12.075 13.8867 14.6218 13.6156 15.9431 13.5617L15.8616 11.5633C14.5032 11.6188 11.5813 11.8945 9.48903 12.9558L10.3938 14.7395ZM15.9611 13.5608C16.9423 13.5031 17.7227 12.694 17.7227 11.7148H15.7227C15.7227 11.6594 15.745 11.6213 15.7638 11.6016C15.784 11.5805 15.8132 11.566 15.8436 11.5642L15.9611 13.5608ZM17.7227 11.7148V2.47266H15.7227V11.7148H17.7227ZM17.7209 2.53138C17.7897 1.36223 16.7402 0.599697 15.7648 0.653883L15.8758 2.6508C15.8483 2.65233 15.8224 2.64369 15.7982 2.62198C15.7714 2.59793 15.7178 2.52618 15.7244 2.41393L17.7209 2.53138ZM8.74072 2.30328C7.67452 1.65084 6.33474 1.26721 5.12806 1.03297C3.9052 0.795595 2.7349 0.69627 1.95681 0.653828L1.84788 2.65086C2.57369 2.69045 3.64558 2.78253 4.74694 2.99632C5.86448 3.21326 6.93095 3.54057 7.69678 4.00922L8.74072 2.30328ZM1.95781 0.653883C0.923067 0.596397 0 1.40349 0 2.47266H2C2 2.54167 1.96879 2.59083 1.94233 2.61508C1.91514 2.64001 1.87953 2.65262 1.84687 2.6508L1.95781 0.653883ZM0 2.47266V11.7148H2V2.47266H0ZM0 11.7148C0 12.694 0.780401 13.5031 1.76159 13.5608L1.87903 11.5642C1.90948 11.566 1.93863 11.5805 1.95883 11.6016C1.97766 11.6213 2 11.6594 2 11.7148H0ZM1.77953 13.5617C3.10089 13.6156 5.6477 13.8867 7.32887 14.7395L8.23363 12.9558C6.14136 11.8945 3.21943 11.6188 1.86109 11.5633L1.77953 13.5617ZM7.36745 14.758C8.20291 15.1378 9.4375 14.6553 9.4375 13.4648H7.4375C7.4375 13.2339 7.5738 13.0487 7.72856 12.9609C7.87275 12.879 8.04578 12.8694 8.19505 12.9373L7.36745 14.758ZM9.4375 13.4648V3.51172H7.4375V13.4648H9.4375ZM9.4375 3.51172C9.4375 2.97414 9.12605 2.53444 8.73325 2.29876L7.70425 4.01374C7.58488 3.94212 7.4375 3.77586 7.4375 3.51172H9.4375Z" fill="#252641" fill-opacity="0.8" mask="url(#path-1-outside-1_135_277)"/>
</svg>
