<svg width="38" height="34" viewBox="0 0 38 34" fill="none" xmlns="http://www.w3.org/2000/svg">
<path d="M36.5584 14.5194C35.353 13.8232 33.6459 13.6004 32.2087 13.9515C31.8236 14.0458 31.466 14.1779 31.1456 14.3444C30.3286 14.769 28.5145 16.0437 27.077 17.3053V7.58075C27.077 6.75418 26.5961 5.94631 25.7575 5.36402C24.9251 4.78603 23.8316 4.4743 22.6841 4.48946C22.1631 4.49602 21.6639 4.56903 21.2026 4.6966V3.74676C21.2026 2.84718 20.6791 1.96782 19.7658 1.33374C18.8608 0.705227 17.6764 0.366466 16.4238 0.382633C13.9264 0.4132 11.8875 1.84732 11.8127 3.60049C11.2717 3.42719 10.6842 3.32994 10.076 3.31705C8.80724 3.29078 7.55068 3.63762 6.62954 4.26942C5.72735 4.88809 5.2303 5.7048 5.2303 6.56674L5.22709 7.48779C4.83768 7.39735 4.42252 7.34784 3.99091 7.34784C1.81285 7.34784 0.0410156 8.59956 0.0410156 10.138L0.042446 24.274L0.0456642 24.341C0.227676 26.1962 0.777285 27.7847 1.67983 29.0624C2.52588 30.2603 3.70627 31.2248 5.18811 31.9291C8.10422 33.3155 11.7065 33.4934 14.519 33.4934C20.0419 33.4934 25.0105 31.5535 27.4954 28.4291C27.7976 28.0851 28.5939 27.2004 29.4539 26.2462C30.2914 25.3166 31.0705 24.46 31.7575 23.7041C32.1351 23.2886 32.4787 22.9107 32.7769 22.5812C33.888 21.3538 35.0719 20.1637 36.2963 19.0438C36.7504 18.6285 36.8903 18.5159 36.9221 18.4911C37.4953 18.0493 37.8565 17.5084 37.9666 16.9266C38.14 16.0139 37.6265 15.1363 36.5584 14.5194ZM35.2418 16.669C35.2064 16.8549 35.0866 17.0312 34.8953 17.1787C34.7955 17.2558 34.6171 17.4023 34.1208 17.8565C32.8467 19.0216 31.6152 20.2592 30.4605 21.5349C30.163 21.8636 29.8208 22.24 29.4439 22.6545C28.7555 23.4119 27.9753 24.2705 27.1346 25.2032C26.2546 26.1798 25.44 27.0844 25.1418 27.4247L25.1107 27.4621C23.1164 29.9842 19.0582 31.551 14.5193 31.551C12.0974 31.551 9.02215 31.4108 6.72323 30.3179C4.37746 29.2029 3.09158 27.2148 2.79193 24.2399L2.79049 10.1383C2.79049 9.67066 3.32902 9.29022 3.99091 9.29022C4.65674 9.29022 5.19848 9.67066 5.19848 10.1383V15.4284C5.19848 15.444 5.20098 15.4592 5.2017 15.4748C5.20313 15.492 5.20313 15.5094 5.20563 15.5266C5.20778 15.542 5.21207 15.5569 5.21529 15.5721C5.21886 15.589 5.22136 15.6062 5.22601 15.6231C5.23066 15.6383 5.2371 15.6532 5.24246 15.6681C5.24818 15.684 5.25283 15.7004 5.25998 15.7161C5.26642 15.7312 5.275 15.7459 5.28287 15.7605C5.29038 15.7754 5.29717 15.7906 5.30611 15.8053C5.31469 15.8199 5.32507 15.8338 5.33472 15.8479C5.34437 15.8621 5.35331 15.8765 5.36368 15.8904C5.37405 15.904 5.38657 15.9172 5.39801 15.9306C5.40946 15.9439 5.42018 15.9576 5.43234 15.9705C5.44486 15.9834 5.4588 15.9955 5.47203 16.0079C5.48526 16.0205 5.49742 16.0334 5.51137 16.0452C5.52531 16.0571 5.54069 16.068 5.55499 16.0793C5.57001 16.091 5.58431 16.1033 5.60005 16.1145C5.61543 16.1251 5.63152 16.1347 5.64761 16.145C5.66406 16.1556 5.68015 16.167 5.69767 16.1771C5.71412 16.1867 5.73164 16.1953 5.7488 16.2044C5.76704 16.214 5.78456 16.2241 5.80316 16.2332C5.82068 16.2415 5.83927 16.2486 5.85715 16.2562C5.87682 16.2648 5.89613 16.2739 5.91651 16.2819C5.93511 16.289 5.95477 16.2948 5.97373 16.3014C5.99447 16.3087 6.01521 16.3163 6.03666 16.3229C6.05633 16.3289 6.07743 16.3335 6.09745 16.3388C6.11926 16.3443 6.14072 16.3507 6.16289 16.3557C6.18399 16.3603 6.20616 16.3635 6.22761 16.3676C6.25014 16.3716 6.27195 16.3764 6.29448 16.3797C6.31737 16.383 6.34025 16.3848 6.36314 16.3873C6.38602 16.3896 6.40819 16.3928 6.43108 16.3946C6.45396 16.3961 6.47756 16.3964 6.50081 16.3971C6.52369 16.3979 6.54658 16.3997 6.56982 16.3997C6.5709 16.3997 6.57233 16.3997 6.5734 16.3997C6.62096 16.3997 6.6678 16.3979 6.71393 16.3946C6.73395 16.3934 6.75362 16.3903 6.77365 16.3883C6.79904 16.3858 6.82514 16.3838 6.85017 16.38C6.87663 16.3762 6.90202 16.3709 6.92777 16.3661C6.94565 16.3625 6.96424 16.36 6.98176 16.3562C7.01037 16.3499 7.03826 16.3421 7.06615 16.3345C7.07974 16.3307 7.0944 16.3277 7.10799 16.3236C7.13588 16.3153 7.16234 16.3054 7.18916 16.2961C7.20203 16.2915 7.21527 16.2878 7.22814 16.283C7.25317 16.2734 7.27677 16.2622 7.30073 16.2516C7.31432 16.2458 7.32826 16.2405 7.34114 16.2342C7.36331 16.2238 7.3844 16.212 7.4055 16.2004C7.41945 16.193 7.43375 16.1862 7.44698 16.1784C7.46665 16.1673 7.48453 16.1546 7.50312 16.1425C7.51707 16.1337 7.53137 16.1251 7.54496 16.116C7.56212 16.1039 7.5775 16.0907 7.59359 16.0781C7.60682 16.0677 7.62113 16.0576 7.63364 16.047C7.64794 16.0346 7.66082 16.0215 7.67441 16.0086C7.68728 15.9965 7.70087 15.9849 7.71267 15.9722C7.72518 15.9594 7.73555 15.946 7.747 15.9326C7.75844 15.9192 7.77095 15.9061 7.78168 15.8924C7.79205 15.8788 7.80063 15.8646 7.81029 15.8507C7.81994 15.8363 7.83067 15.8222 7.83961 15.8075C7.84819 15.7934 7.85463 15.7785 7.86214 15.7641C7.87036 15.7489 7.87894 15.734 7.8861 15.7184C7.89253 15.7035 7.89718 15.6883 7.90255 15.6731C7.90827 15.6572 7.91506 15.6416 7.92007 15.6254C7.92436 15.6102 7.92686 15.5943 7.93008 15.5787C7.93401 15.5622 7.9383 15.5458 7.94081 15.5291C7.94331 15.5135 7.94331 15.4973 7.94438 15.4814C7.94581 15.4645 7.94832 15.4481 7.94832 15.4311L7.98014 6.56926C7.98014 6.2348 8.18075 5.91296 8.54477 5.66312C8.93597 5.39509 9.4652 5.24706 9.99478 5.25868C10.9867 5.27965 11.7938 5.88922 11.7938 6.61903L11.8095 15.3771C11.8095 15.3948 11.812 15.4119 11.8135 15.4291C11.8145 15.4445 11.8145 15.4604 11.8167 15.4756C11.8192 15.4938 11.8242 15.5112 11.8281 15.5289C11.8313 15.5433 11.8335 15.5579 11.8374 15.5721C11.8431 15.5913 11.851 15.61 11.8582 15.6287C11.8628 15.6408 11.8664 15.6532 11.8714 15.6651C11.8803 15.6853 11.8918 15.705 11.9025 15.7247C11.9079 15.7345 11.9118 15.7446 11.9175 15.7542C11.9304 15.7752 11.9451 15.7957 11.9597 15.8159C11.9654 15.8234 11.9697 15.8315 11.9755 15.8389C11.9915 15.8598 12.0098 15.8798 12.0277 15.8995C12.0334 15.9061 12.0384 15.9126 12.0445 15.9189C12.0634 15.9389 12.0842 15.9576 12.1049 15.9763C12.1113 15.9821 12.1171 15.9882 12.1235 15.9937C12.1467 16.0137 12.1718 16.0324 12.1972 16.0508C12.2025 16.0548 12.2068 16.0589 12.2122 16.0627C12.2383 16.0811 12.2662 16.0983 12.2944 16.1152C12.2998 16.1185 12.3044 16.122 12.3098 16.1253C12.338 16.1417 12.3674 16.1566 12.397 16.1713C12.4035 16.1746 12.4092 16.1781 12.4156 16.1812C12.4457 16.1956 12.4771 16.2084 12.5086 16.2211C12.5154 16.2238 12.5218 16.2271 12.529 16.2299C12.5619 16.2423 12.5959 16.2534 12.6302 16.2643C12.6366 16.2663 12.6427 16.2688 12.6491 16.2708C12.6842 16.2812 12.7203 16.29 12.7568 16.2986C12.7632 16.2999 12.7689 16.3019 12.7754 16.3034C12.8115 16.3113 12.8483 16.3176 12.8851 16.3234C12.8927 16.3244 12.8998 16.3262 12.9073 16.3274C12.9967 16.3403 13.0893 16.3471 13.1841 16.3471C13.1848 16.3471 13.1855 16.3471 13.1862 16.3471C13.2102 16.3471 13.2338 16.3454 13.2574 16.3446C13.2803 16.3436 13.3032 16.3436 13.3257 16.3421C13.3507 16.3401 13.3747 16.3368 13.3994 16.334C13.4201 16.3317 13.4416 16.3302 13.4623 16.3272C13.487 16.3236 13.5109 16.3186 13.5352 16.314C13.5549 16.3102 13.5746 16.3075 13.5939 16.3032C13.6186 16.2979 13.6422 16.291 13.6661 16.2845C13.684 16.2797 13.7026 16.2759 13.7201 16.2706C13.7448 16.263 13.7687 16.2542 13.7927 16.2458C13.8084 16.2403 13.8249 16.2355 13.8403 16.2297C13.8639 16.2206 13.8864 16.21 13.9093 16.2001C13.9239 16.1935 13.9393 16.1877 13.9536 16.1809C13.9754 16.1705 13.9958 16.1589 14.0166 16.1476C14.0309 16.14 14.0455 16.1329 14.0595 16.1248C14.0791 16.1135 14.0977 16.1006 14.1167 16.0882C14.1299 16.0796 14.1439 16.0713 14.1571 16.0622C14.1746 16.0495 14.1911 16.0359 14.2079 16.0228C14.2204 16.0129 14.2336 16.0036 14.2458 15.9932C14.2608 15.9801 14.2744 15.9662 14.2883 15.9528C14.3005 15.9412 14.3133 15.9301 14.3248 15.9184C14.3377 15.905 14.3484 15.8909 14.3602 15.877C14.3713 15.8641 14.3834 15.8515 14.3934 15.8384C14.4042 15.8245 14.4128 15.8098 14.4224 15.7957C14.4321 15.7815 14.4428 15.7679 14.4514 15.7532C14.4596 15.7393 14.4664 15.7247 14.4735 15.7103C14.4818 15.6949 14.4907 15.6797 14.4975 15.664C14.5039 15.6489 14.5086 15.6335 14.5143 15.6181C14.52 15.6024 14.5268 15.587 14.5311 15.5711C14.5358 15.5552 14.5383 15.5387 14.5418 15.5228C14.5451 15.5067 14.5497 15.4907 14.5519 15.4746C14.5544 15.4582 14.5544 15.4415 14.5554 15.4248C14.5569 15.4084 14.559 15.3925 14.559 15.3758V3.70027C14.559 2.95454 15.4172 2.33765 16.4717 2.32477C16.9806 2.31971 17.464 2.45865 17.8391 2.7191C18.2296 2.99016 18.4535 3.3648 18.4535 3.74676V15.4294C18.4535 15.447 18.456 15.4642 18.4574 15.4817C18.4585 15.4971 18.4585 15.5127 18.4606 15.5281C18.4631 15.5453 18.4681 15.562 18.4717 15.5789C18.4753 15.5943 18.4774 15.6097 18.4817 15.6246C18.4867 15.6416 18.4939 15.658 18.5 15.6747C18.5053 15.6891 18.5093 15.7035 18.5157 15.7176C18.5236 15.7355 18.5336 15.753 18.5429 15.7704C18.5493 15.7825 18.5547 15.7949 18.5618 15.8068C18.5729 15.825 18.5858 15.8424 18.5983 15.8601C18.6055 15.8704 18.6119 15.8813 18.6198 15.8917C18.6333 15.9096 18.6491 15.9265 18.6645 15.9437C18.6727 15.9528 18.6798 15.9626 18.6888 15.9717C18.7052 15.9889 18.7235 16.0053 18.7417 16.0218C18.7506 16.0298 18.7585 16.0384 18.7678 16.0463C18.7878 16.0637 18.81 16.0799 18.8318 16.0963C18.8404 16.1023 18.8479 16.1092 18.8565 16.1152C18.879 16.1314 18.9033 16.146 18.9276 16.1609C18.9366 16.1665 18.9448 16.1726 18.9541 16.1779C18.9813 16.1938 19.0099 16.2082 19.0385 16.2226C19.0456 16.2261 19.0524 16.2302 19.0599 16.234C19.0907 16.2486 19.1229 16.262 19.1554 16.2749C19.1615 16.2771 19.1669 16.2802 19.1729 16.2825C19.2087 16.2961 19.2452 16.3082 19.2827 16.3198C19.2863 16.3209 19.2895 16.3224 19.2931 16.3234C19.3321 16.335 19.3721 16.3451 19.4129 16.3542C19.415 16.355 19.4172 16.3555 19.4197 16.356C19.5051 16.3749 19.5942 16.3878 19.6861 16.3946C19.6868 16.3946 19.6872 16.3946 19.6879 16.3946C19.734 16.3979 19.7808 16.3997 19.8284 16.3997C19.8288 16.3997 19.8291 16.3997 19.8298 16.3997C19.8541 16.3997 19.8781 16.3979 19.9024 16.3971C19.9249 16.3961 19.9475 16.3961 19.9696 16.3946C19.995 16.3928 20.0197 16.3893 20.0447 16.3865C20.0651 16.3843 20.0859 16.3827 20.1062 16.3797C20.1331 16.3759 20.1588 16.3704 20.1849 16.3656C20.2024 16.3623 20.2207 16.3598 20.2378 16.356C20.2657 16.3497 20.2925 16.3421 20.3197 16.3347C20.3344 16.3307 20.3494 16.3274 20.3641 16.3231C20.3916 16.3148 20.4181 16.3052 20.4449 16.2956C20.4578 16.291 20.4713 16.2873 20.4842 16.2822C20.5103 16.2721 20.5353 16.2607 20.5607 16.2494C20.5729 16.2441 20.5854 16.2393 20.5976 16.2334C20.6233 16.2213 20.6473 16.2077 20.6716 16.1943C20.682 16.1887 20.693 16.1834 20.7034 16.1776C20.7274 16.1635 20.7499 16.1481 20.7728 16.1329C20.7821 16.1268 20.7921 16.1213 20.8007 16.115C20.8228 16.0993 20.8436 16.0826 20.864 16.0657C20.8726 16.0591 20.8815 16.0528 20.8897 16.046C20.9094 16.0291 20.9273 16.0111 20.9451 15.9935C20.9527 15.9859 20.9612 15.9788 20.9687 15.9712C20.9855 15.9535 21.0006 15.9351 21.0156 15.9167C21.0227 15.9081 21.031 15.9 21.0378 15.8911C21.0521 15.8725 21.0642 15.853 21.0767 15.8336C21.0828 15.8245 21.09 15.8156 21.0953 15.8063C21.1068 15.7873 21.1161 15.7676 21.1257 15.7482C21.1307 15.7378 21.1372 15.7277 21.1418 15.7168C21.1497 15.6984 21.1558 15.6789 21.1626 15.66C21.1665 15.6479 21.1719 15.636 21.1754 15.6239C21.1808 15.6052 21.184 15.5857 21.1879 15.5668C21.1904 15.5536 21.1944 15.5408 21.1962 15.5274C21.199 15.5097 21.199 15.4915 21.2001 15.4733C21.2012 15.4584 21.2033 15.4438 21.2033 15.4284V7.41225C21.2927 6.87039 21.9439 6.44119 22.7324 6.43159C23.1375 6.42679 23.5287 6.53946 23.8309 6.74938C24.147 6.96866 24.3283 7.2718 24.3283 7.58075V19.0443L24.329 19.0878C24.3365 19.7171 24.9215 20.2488 25.7844 20.411C26.6415 20.5719 27.5172 20.3175 27.9678 19.7724L27.9764 19.7615C29.0541 18.4312 31.9348 16.3461 32.7759 15.9091C32.8731 15.8583 32.9851 15.8176 33.1084 15.7873C33.6563 15.6537 34.3432 15.7484 34.8188 16.0233C35.0426 16.1529 35.2983 16.3701 35.2418 16.669Z" fill="#F48C06"/>
</svg>
