<svg width="18" height="18" viewBox="0 0 18 18" fill="none" xmlns="http://www.w3.org/2000/svg">
<g clip-path="url(#clip0_10_492)">
<path d="M16.9601 0.81775L13.5024 0.0198195C13.1267 -0.066623 12.7411 0.129535 12.5881 0.481954L10.9923 4.20563C10.8526 4.53145 10.9457 4.9138 11.2217 5.13655L13.2365 6.78561C12.0396 9.33566 9.94832 11.4568 7.34507 12.677L5.69602 10.6622C5.46994 10.3863 5.09092 10.2932 4.7651 10.4328L1.04142 12.0287C0.685674 12.1849 0.489516 12.5706 0.575959 12.9463L1.37389 16.404C1.45701 16.7631 1.77618 17.0224 2.15187 17.0224C10.6665 17.0224 17.5785 10.1236 17.5785 1.59573C17.5785 1.22337 17.3225 0.900868 16.9601 0.81775Z" fill="white"/>
</g>
<defs>
<clipPath id="clip0_10_492">
<rect width="17.0225" height="17.0225" fill="white" transform="translate(0.556641 0.000244141)"/>
</clipPath>
</defs>
</svg>
