<svg width="30" height="26" viewBox="0 0 30 26" fill="none" xmlns="http://www.w3.org/2000/svg">
<path d="M4.5 11.3752C6.15469 11.3752 7.5 9.91782 7.5 8.12524C7.5 6.33267 6.15469 4.87524 4.5 4.87524C2.84531 4.87524 1.5 6.33267 1.5 8.12524C1.5 9.91782 2.84531 11.3752 4.5 11.3752ZM25.5 11.3752C27.1547 11.3752 28.5 9.91782 28.5 8.12524C28.5 6.33267 27.1547 4.87524 25.5 4.87524C23.8453 4.87524 22.5 6.33267 22.5 8.12524C22.5 9.91782 23.8453 11.3752 25.5 11.3752ZM27 13.0002H24C23.175 13.0002 22.4297 13.3608 21.8859 13.9448C23.775 15.067 25.1156 17.0932 25.4062 19.5002H28.5C29.3297 19.5002 30 18.7741 30 17.8752V16.2502C30 14.4577 28.6547 13.0002 27 13.0002ZM15 13.0002C17.9016 13.0002 20.25 10.4561 20.25 7.31274C20.25 4.16938 17.9016 1.62524 15 1.62524C12.0984 1.62524 9.75 4.16938 9.75 7.31274C9.75 10.4561 12.0984 13.0002 15 13.0002ZM18.6 14.6252H18.2109C17.2359 15.1331 16.1531 15.4377 15 15.4377C13.8469 15.4377 12.7688 15.1331 11.7891 14.6252H11.4C8.41875 14.6252 6 17.2456 6 20.4752V21.9377C6 23.2834 7.00781 24.3752 8.25 24.3752H21.75C22.9922 24.3752 24 23.2834 24 21.9377V20.4752C24 17.2456 21.5812 14.6252 18.6 14.6252ZM8.11406 13.9448C7.57031 13.3608 6.825 13.0002 6 13.0002H3C1.34531 13.0002 0 14.4577 0 16.2502V17.8752C0 18.7741 0.670312 19.5002 1.5 19.5002H4.58906C4.88438 17.0932 6.225 15.067 8.11406 13.9448Z" fill="#2F327D"/>
</svg>
